<?xml version="1.0" encoding="utf-8"?>
<!-- Generator: Adobe Illustrator 23.0.0, SVG Export Plug-In . SVG Version: 6.00 Build 0)  -->
<svg version="1.1" id="ANG" xmlns="http://www.w3.org/2000/svg" xmlns:xlink="http://www.w3.org/1999/xlink" x="0px" y="0px"
	 width="8503.94px" height="5669.29px" viewBox="0 0 8503.94 5669.29" style="enable-background:new 0 0 8503.94 5669.29;"
	 xml:space="preserve">
<style type="text/css">
	.st0{clip-path:url(#SVGID_2_);}
	.st1{fill:#020203;}
	.st2{fill:#CE1327;}
	.st3{fill:#FAD718;}
</style>
<g>
	<defs>
		<rect id="SVGID_1_" width="8503.94" height="5669.29"/>
	</defs>
	<clipPath id="SVGID_2_">
		<use xlink:href="#SVGID_1_"  style="overflow:visible;"/>
	</clipPath>
	<g id="Angola_1_" class="st0">
		<rect x="-18.71" y="2834.62" class="st1" width="8541.36" height="2847.1"/>
		<rect x="-18.71" y="-12.42" class="st2" width="8541.36" height="2847.04"/>
		<path class="st3" d="M3567.12,2736.65l301.18-218.85l301.19,218.85l-115.06-354.15l301.19-218.72h-372.15l-115.18-354.15
			l-114.93,354.15h-372.39l301.3,218.72L3567.12,2736.65z M5473.7,4483.85c-44.09-71.72-98.67-124.33-169.74-187.4
			c-71.21-63.12-169.3-132.59-242.11-203.15l-138.36,162.36l3.7,23.88c155.32,26.6,204.01,81.76,265.75,134.32
			c83.44,84.42,117.71,186.49,172.17,224.34C5465.85,4708.01,5538.32,4589.04,5473.7,4483.85z M5109.62,4226l-19.04-19.16
			l19.04-19.15l19.15,19.15L5109.62,4226z M5250.52,4348.67l-19.15-19.04l19.15-19.17l19.16,19.17L5250.52,4348.67z
			 M5374.22,4474.39l-19.16-19.05l19.16-19.09l19.15,19.09L5374.22,4474.39z M4978.76,2835.2c0,339.61-152.89,643.5-393.38,847.23
			l311.8,216.14c40.85-39.47,79.62-80.84,115.62-124.79l-87.94-72.07c56.55-69.01,106.63-143.56,148.86-222.72l100.39,53.49
			c45.69-85.52,82.74-175.35,111.02-268.07l-108.82-33c25.62-84.47,43.27-172.4,52.04-262.81l113.32,11.13
			c9.47-96.53,9.47-193.8,0-290.21l-113.32,11.07c-8.89-90.47-27-178.17-52.74-262.53l109.52-33.23
			c-28.28-92.73-65.32-182.67-111.02-268.07L5072,2191.23c-42.71-78.82-92.78-153.01-149.79-221.44l90.58-74.43
			c-61.5-74.95-130.29-143.72-205.17-205.18l-75.59,92.09c-68.89-55.9-143.32-105.3-222.6-147.13l56.78-106.28
			c-85.4-45.69-175.4-82.8-268.18-111l-35.08,115.73c-81.12-24.46-165.48-41.65-252.26-50.76l-27,253.35
			C4541.64,1794.73,4978.76,2261.74,4978.76,2835.2z M4229.72,3885.01c-113.31,39.11-234.83,60.58-361.42,60.58
			c-267.25,0-508.65-98.79-700.33-256.3l-162.25,197.9c68.43,56.26,142.28,106.05,220.41,148.81l-55.74,104.32
			c85.62,45.75,175.4,82.86,268.18,111.06l33.58-110.43c84.12,26.3,171.82,44.77,262.18,53.88l-11.08,113.2
			c96.47,9.41,193.64,9.41,290.23,0l-11.08-112.85c90.47-8.89,178.41-26.6,262.87-52.16l32.78,108.35
			c45.92-13.9,91.15-30.11,135.36-48.4l-60-233.05L4229.72,3885.01z M3691.29,3175.38L3691.29,3175.38l-0.46-16.05l16.15-0.46
			c378.96,357.21,857.4,649.39,1285.28,972.96l40.96-48.24c-487.77-348.55-1642.07-1150.21-1656.28-1442.33
			c-228.01,444.9,60.94,710.89,246.95,816.65c473.58,269.33,787.93,446.7,1282.05,775.4l71.55-84.12
			C4551.11,3826.85,4072.45,3534.5,3691.29,3175.38z"/>
	</g>
</g>
</svg>
